PathFileType	4	(X/Y/Z)	C:\Users\Basilio\Documents\Thesis Gigler\squatting_fais\c3dfiles\073\SLS_front_pre2\markers_experimental.trc
DataRate	CameraRate	NumFrames	NumMarkers	Units	OrigDataRate	OrigDataStartFrame	OrigNumFrames
200.000000	200.000000	4	61	mm	200.000000	0	1328
Frame#	Time	FHD			LBHD			RBHD			C7			T10			CLAV			LSHO			LUUPA			LMUPA			LDUPA			LLEP			LMEP			LRAD			LUL			LRFIN			RSHO			RUPA1			RMUPA			RDUPA			RLEP			RMEP			RRAD			RUL			RUFIN			LASI			RASI			USACR			LSACR			RSACR			LTHI1			LTHI2			LTHI3			LTHI4			LLFC			LMFC			LTIB1			LTIB2			LTIB3			LTIB4			LLMAL			LMMAL			LHEE			LMT1			LMT2			LMT5			RTHI			RTHI2			RTHI3			RTHI4			RLFC			RMFC			RTIB1			RTIB2			RTIB3			RTIB4			RLMAL			RMMAL			RHEE			RMT1			RMT2			RMT5			
		X1	Y1	Z1	X2	Y2	Z2	X3	Y3	Z3	X4	Y4	Z4	X5	Y5	Z5	X6	Y6	Z6	X7	Y7	Z7	X8	Y8	Z8	X9	Y9	Z9	X10	Y10	Z10	X11	Y11	Z11	X12	Y12	Z12	X13	Y13	Z13	X14	Y14	Z14	X15	Y15	Z15	X16	Y16	Z16	X17	Y17	Z17	X18	Y18	Z18	X19	Y19	Z19	X20	Y20	Z20	X21	Y21	Z21	X22	Y22	Z22	X23	Y23	Z23	X24	Y24	Z24	X25	Y25	Z25	X26	Y26	Z26	X27	Y27	Z27	X28	Y28	Z28	X29	Y29	Z29	X30	Y30	Z30	X31	Y31	Z31	X32	Y32	Z32	X33	Y33	Z33	X34	Y34	Z34	X35	Y35	Z35	X36	Y36	Z36	X37	Y37	Z37	X38	Y38	Z38	X39	Y39	Z39	X40	Y40	Z40	X41	Y41	Z41	X42	Y42	Z42	X43	Y43	Z43	X44	Y44	Z44	X45	Y45	Z45	X46	Y46	Z46	X47	Y47	Z47	X48	Y48	Z48	X49	Y49	Z49	X50	Y50	Z50	X51	Y51	Z51	X52	Y52	Z52	X53	Y53	Z53	X54	Y54	Z54	X55	Y55	Z55	X56	Y56	Z56	X57	Y57	Z57	X58	Y58	Z58	X59	Y59	Z59	X60	Y60	Z60	X61	Y61	Z61	

1	0	-235.6381988525391	1705.18115234375	-853.1444091796877	-367.0223693847657	1667.18017578125	-882.746520996094	-394.601776123047	1648.792236328125	-750.0471801757814	-423.0198669433595	1541.56591796875	-813.7375488281252	-429.016082763672	1200.172119140625	-810.9939575195315	-294.1199645996094	1466.356689453125	-810.782653808594	-319.0848693847657	1495.386840820313	-967.725036621094	-242.7307586669922	1394.085693359375	-1053.005737304688	-198.5236511230469	1412.299438476563	-1035.5146484375	-183.6069946289063	1358.8203125	-1061.652587890625	-83.51831054687501	1322.61279296875	-1066.309814453125	-92.74953460693361	1267.5263671875	-1017.241516113281	160.618637084961	1353.169311523438	-921.7124633789065	173.2506866455078	1345.41455078125	-994.362243652344	237.7831268310547	1362.770385742188	-905.2216796875002	-313.8537292480469	1494.116455078125	-658.6995239257814	-225.3236999511719	1379.605590820313	-564.2647705078126	-183.9157409667969	1400.172607421875	-578.5192260742189	-164.2277984619141	1347.810546875	-557.2141723632814	-73.80966186523439	1324.882690429688	-555.6638793945314	-81.3544387817383	1270.426147460938	-618.3538818359376	176.2268829345703	1343.540649414063	-682.7730102539064	188.2044677734375	1351.33935546875	-607.5192260742189	267.9454345703126	1361.390625	-690.0286865234376	-246.1205749511719	1057.617309570313	-939.2703857421877	-244.8201293945313	1044.478881835938	-684.3779907226564	-433.7347412109376	1102.227905273438	-805.5479125976565	-445.3730773925782	1073.42578125	-833.6445922851565	-448.2111816406251	1070.230834960938	-777.9273681640627	-319.6130371093751	734.2153320312501	-995.4233398437502	-294.5921936035157	655.6098632812501	-976.6734619140627	-253.2470855712891	655.9681396484376	-949.698425292969	-329.1530456542969	608.1995239257814	-969.3760375976565	-337.2014770507813	546.4620971679689	-970.575622558594	-340.0575866699219	541.0208740234376	-831.9965820312502	-286.8785705566407	349.7344970703126	-916.274108886719	-344.2151794433594	305.2048339843751	-964.7460937500002	-302.7131652832032	300.6750793457032	-945.7009887695315	-298.5281677246094	223.5533905029297	-909.4000244140627	-358.0689086914063	105.5012435913086	-925.9766235351565	-346.6258850097657	132.7583770751953	-845.076354980469	-417.5755920410157	85.3671340942383	-884.6333618164065	-198.4770202636719	54.67242431640626	-841.5238037109377	-196.1210479736329	50.69516372680665	-879.6562500000002	-232.9925537109376	33.01959228515626	-935.0864868164065	-351.8067626953126	810.397399902344	-625.6446533203126	-320.7638854980469	751.7479248046876	-624.4199829101564	-287.0084838867188	751.3395385742189	-627.2377319335939	-353.2030334472657	677.8106079101564	-649.1381225585939	-345.6124877929688	527.2041015625001	-670.2305908203126	-333.1296997070313	518.5802001953126	-800.333435058594	-298.8026733398438	366.9122924804688	-758.9927978515626	-328.0561828613282	283.5149536132813	-694.7996215820314	-300.9709777832032	283.0222167968751	-734.9349365234376	-314.9674987792969	238.5830383300782	-769.9165039062502	-367.1531372070313	104.6593856811524	-725.4316406250001	-354.1193542480469	131.9280395507813	-810.0803833007815	-433.5740966796876	85.30680084228517	-784.1543579101565	-208.2884216308594	56.78453063964845	-786.2886962890627	-210.7010650634766	52.724910736084	-745.1068115234376	-256.5526428222657	34.63321685791016	-699.8132324218751	
2	0.005	-235.7115173339844	1705.11376953125	-853.2054443359377	-367.0759277343751	1667.148803710938	-882.7525024414065	-394.6458435058595	1648.854736328125	-750.0094604492189	-423.0282592773439	1541.576171875	-813.6867675781252	-429.0603942871095	1200.183349609375	-810.8415527343752	-294.1528625488282	1466.351806640625	-810.6781005859377	-319.1456298828126	1495.367309570313	-967.6528930664065	-242.6348419189454	1394.087890625	-1052.782104492188	-198.5326843261719	1412.291259765625	-1035.321899414063	-183.5091400146485	1358.791381835938	-1061.38134765625	-83.4518508911133	1322.6162109375	-1065.915161132813	-92.70501708984376	1267.636108398438	-1016.849060058594	161.2762298583985	1352.496948242188	-922.1802368164065	173.6134185791016	1344.733154296875	-994.738464355469	238.8552551269532	1361.95361328125	-905.8027343750002	-313.8388977050782	1494.166625976563	-658.6165771484376	-225.3094940185547	1379.677734375	-564.2167968750001	-183.8932037353516	1400.23828125	-578.5096435546876	-164.2132720947266	1347.851318359375	-557.1928710937501	-73.8132781982422	1324.899658203125	-555.6341552734376	-81.38268280029298	1270.455200195313	-618.3099365234376	176.3143005371094	1343.587768554688	-682.8289794921876	188.1700897216797	1351.337036132813	-607.4205932617189	267.8924560546876	1361.367797851563	-689.8925170898439	-246.1329650878907	1057.630004882813	-939.190856933594	-244.8155517578126	1044.466552734375	-684.2628173828126	-433.7679138183595	1102.186157226563	-805.3923950195315	-445.192596435547	1073.36767578125	-833.5268554687502	-448.2280578613282	1070.198852539063	-777.8270263671877	-319.5602722167969	734.2409057617189	-995.3367919921877	-294.4827575683594	655.6207275390626	-976.6038208007815	-253.1806030273438	656.3439941406251	-949.8533935546877	-329.0841064453126	608.2094726562501	-969.319274902344	-337.1420898437501	546.4820556640626	-970.462097167969	-340.0293273925782	541.0805664062501	-831.9644165039065	-286.8095397949219	349.7386474609376	-916.1792602539065	-344.1611633300782	305.1880187988282	-964.6987304687502	-302.6304931640626	300.6839904785157	-945.6477661132815	-298.5161743164063	223.5564727783204	-909.3843383789065	-358.0640258789063	105.456169128418	-925.9735107421877	-346.6528015136719	132.7657623291016	-845.0559082031252	-417.5608215332032	85.35424041748048	-884.640808105469	-198.4900512695313	54.70922470092775	-841.5034179687502	-195.9750061035157	50.76562500000001	-879.7050781250002	-232.9646453857422	33.04337310791016	-935.059509277344	-351.7789306640626	810.3814697265627	-625.5391235351564	-320.7586975097657	751.7405395507814	-624.3613281250001	-287.0165710449219	751.3038330078126	-627.1876220703126	-353.2042846679688	677.7690429687501	-649.0812988281251	-345.6112976074219	527.1610717773439	-670.1701049804689	-333.1199035644532	518.4238891601564	-800.1342773437502	-298.8176574707032	366.9122619628907	-758.9560546875001	-328.0621948242188	283.5267333984376	-694.7217407226564	-300.9963989257813	283.0110168457032	-734.9068603515626	-314.9674987792969	238.5830383300782	-769.9165039062502	-367.1799926757813	104.6751937866211	-725.3985595703126	-354.1542968750001	131.9469451904297	-810.082458496094	-433.5740966796876	85.30680084228517	-784.1543579101565	-208.2759704589844	56.78672027587892	-786.2904052734377	-210.7064208984376	52.72981643676759	-745.0989379882814	-256.5537109375001	34.63167953491212	-699.8171997070314	
3	0.01	-235.8093872070313	1705.14111328125	-853.238220214844	-367.1748352050782	1667.130859375	-882.7659301757815	-394.6461181640626	1648.87060546875	-750.0919799804689	-423.0906677246095	1541.567626953125	-813.6428222656252	-429.0787658691407	1200.181518554688	-810.701110839844	-294.2008361816407	1466.344970703125	-810.5999145507815	-319.1994323730469	1495.33544921875	-967.5385742187502	-242.5671997070313	1394.0166015625	-1052.588745117188	-198.5364837646485	1412.322998046875	-1035.130493164063	-183.5171051025391	1358.76513671875	-1061.061889648438	-83.47799682617189	1322.613891601563	-1065.528198242188	-92.61338043212892	1267.742797851563	-1016.406127929688	161.6763610839844	1351.909912109375	-922.441833496094	173.8052825927735	1344.03466796875	-995.1389160156252	239.4961700439454	1361.142700195313	-906.3736572265627	-313.8473205566407	1494.163452148438	-658.5828247070314	-225.3370208740235	1379.714233398438	-564.1454467773439	-183.8782806396485	1400.266357421875	-578.4470214843751	-164.2676391601563	1347.900512695313	-557.1177978515626	-73.86800384521486	1324.955444335938	-555.5321044921876	-81.39794158935548	1270.512451171875	-618.2631835937501	176.3509063720703	1343.5537109375	-682.7885742187501	188.1629791259766	1351.31787109375	-607.3903198242189	268.0273437500001	1361.318359375	-689.9444580078126	-246.1728973388672	1057.675659179688	-939.0885009765627	-244.8213348388672	1044.435180664063	-684.1472167968751	-433.7339172363282	1102.151123046875	-805.2767333984377	-445.6722106933595	1073.484985351563	-833.3812255859377	-448.235076904297	1070.15087890625	-777.6656494140627	-319.4843444824219	734.2374267578126	-995.2420043945315	-294.4252014160157	655.6278076171876	-976.4862060546877	-253.1097717285157	656.3643798828126	-949.767517089844	-329.0389709472657	608.2120361328126	-969.2149658203127	-336.9743957519532	546.4482421875001	-970.3999023437502	-340.0252685546876	541.0751342773439	-831.824890136719	-286.7363891601563	349.7487487792969	-916.1465454101565	-344.0499877929688	305.2679443359376	-964.6295166015627	-302.5242919921876	300.6813659667969	-945.6186523437502	-298.4656372070313	223.5430145263672	-909.3572387695315	-358.0624694824219	105.5248794555664	-925.9129638671877	-346.5842590332032	132.7565612792969	-845.0401611328127	-417.5603637695314	85.37850189208986	-884.6292724609377	-198.4781646728516	54.67990112304689	-841.4853515625002	-196.1211090087891	50.69514083862306	-879.6562500000002	-233.0307617187501	33.01999282836915	-935.0620117187502	-351.7621765136719	810.353210449219	-625.4049072265626	-320.7188720703126	751.7227172851564	-624.2773437500001	-286.9980468750001	751.2810058593751	-627.1044311523439	-353.2073364257813	677.7672119140626	-648.9536132812501	-345.6520385742188	527.1523437500001	-670.0919189453126	-333.2817382812501	518.5177001953126	-800.1724243164065	-298.8490905761719	366.9288024902344	-758.9052734375001	-328.0332946777344	283.4931030273438	-694.6971435546876	-301.0253601074219	282.9993286132813	-734.8954467773439	-315.0115356445313	238.6239776611329	-769.9208984375002	-367.1642761230469	104.6342086791992	-725.3940429687501	-354.1292419433594	131.9469604492188	-810.0505371093752	-433.5732727050782	85.28972625732423	-784.1882934570315	-208.3022155761719	56.7792205810547	-786.276794433594	-210.7126464843751	52.72338867187501	-745.1098022460939	-256.5536804199219	34.62091064453126	-699.8643188476564	
4	0.015	-235.8363189697266	1705.096923828125	-853.3364868164065	-367.2414245605469	1667.067749023438	-882.7217407226565	-394.6941223144532	1648.910888671875	-749.9404907226564	-423.1005249023439	1541.5615234375	-813.549743652344	-429.0865478515626	1200.135986328125	-810.5222778320315	-294.0986022949219	1466.540283203125	-810.3532714843752	-319.2547912597657	1495.314819335938	-967.4378051757815	-242.4540710449219	1394.064453125	-1052.379516601563	-198.3937072753907	1412.406616210938	-1034.775024414063	-183.4793243408203	1358.736938476563	-1060.76171875	-83.36495971679689	1322.645385742188	-1065.2001953125	-92.55665588378908	1267.83935546875	-1016.0068359375	162.1480560302735	1351.33935546875	-922.8123168945315	174.1035919189453	1343.409423828125	-995.5029907226565	241.1168365478516	1360.305419921875	-906.7814941406252	-313.8959350585938	1494.219360351563	-658.5234375000001	-225.3412017822266	1379.77490234375	-564.1111450195314	-183.8993072509766	1400.339111328125	-578.4129638671876	-164.2401733398438	1347.951538085938	-557.0802612304689	-73.87268066406251	1324.966796875	-555.5206909179689	-81.44125366210939	1270.538940429688	-618.1999511718751	176.3248291015625	1343.558471679688	-682.7409057617189	188.1490783691407	1351.337158203125	-607.3719482421876	268.8545227050782	1361.212890625	-690.5413208007814	-246.2230834960938	1057.713989257813	-938.9619140625002	-244.8312072753907	1044.429565429688	-684.0548095703126	-433.7088012695314	1102.105102539063	-805.0827636718752	-445.6602172851564	1073.47998046875	-833.3049316406252	-448.2020874023439	1070.14599609375	-777.5189208984377	-319.4108276367188	734.3153076171876	-995.0767822265627	-294.3307495117188	655.6495361328126	-976.3753662109377	-253.0146026611329	656.4009399414064	-949.6781005859377	-328.8840637207032	608.1999511718751	-969.1125488281252	-336.8235168457032	546.4710083007814	-970.2871093750002	-340.0083007812501	541.1130371093751	-831.754577636719	-286.6864624023438	349.7070007324219	-916.0797119140627	-344.0045776367188	305.2384948730469	-964.6004638671877	-302.4196166992188	300.7073974609376	-945.532409667969	-298.4064941406251	223.5182342529297	-909.2542724609377	-358.0521850585938	105.4868698120117	-925.9030761718752	-346.5984497070313	132.7626953125	-845.035827636719	-417.5721130371095	85.39882659912111	-884.6067504882815	-198.4759826660157	54.66134262084962	-841.4521484375002	-196.0605773925782	50.7448081970215	-879.6494140625002	-233.0307617187501	33.01999282836915	-935.0620117187502	-351.7094116210938	810.3491210937502	-625.3289184570314	-320.7333679199219	751.6877441406251	-624.1775512695314	-286.9878845214844	751.2655029296876	-626.9819335937501	-353.2170104980469	677.7586669921876	-648.9111938476564	-345.6645202636719	527.1092529296876	-670.0079956054689	-333.3145751953126	518.3821411132814	-800.1812744140627	-298.8781738281251	366.9238281250001	-758.9154052734376	-328.0362548828126	283.4955139160157	-694.6699218750001	-301.0228881835938	283.0039978027344	-734.8620605468751	-315.0189819335938	238.6036376953126	-769.8781738281252	-367.1719055175782	104.6250839233399	-725.3911132812501	-354.1292419433594	131.9469604492188	-810.0505371093752	-433.5822753906251	85.30947875976564	-784.1322021484377	-208.2840270996094	56.79331207275392	-786.2900390625002	-210.7152709960938	52.69724655151369	-745.0922241210939	-256.5810546875001	34.62432479858399	-699.8501586914064	
